<svg xmlns="http://www.w3.org/2000/svg" viewBox="0 0 128 128" role="img" aria-label="Sirene de polícia">
  <defs>
    <linearGradient id="g1" x1="24" x2="104" y1="28" y2="98" gradientUnits="userSpaceOnUse">
      <stop offset="0" stop-color="#ff2f55"/>
      <stop offset="0.55" stop-color="#ef4444"/>
      <stop offset="1" stop-color="#7f1d1d"/>
    </linearGradient>
    <linearGradient id="g2" x1="42" x2="88" y1="30" y2="78" gradientUnits="userSpaceOnUse">
      <stop offset="0" stop-color="#ffffff" stop-opacity=".85"/>
      <stop offset="1" stop-color="#ffffff" stop-opacity=".08"/>
    </linearGradient>
    <filter id="shadow" x="-30%" y="-30%" width="160%" height="160%">
      <feDropShadow dx="0" dy="8" stdDeviation="7" flood-color="#000" flood-opacity=".35"/>
    </filter>
  </defs>
  <rect width="128" height="128" rx="31" fill="#07111f"/>
  <path d="M19 40 8 28M109 40l11-12M64 18V6" stroke="#f8fafc" stroke-width="8" stroke-linecap="round" opacity=".85"/>
  <path filter="url(#shadow)" d="M28 98h72V62c0-19.9-16.1-36-36-36S28 42.1 28 62v36Z" fill="url(#g1)"/>
  <path d="M44 74V61c0-9.9 8.1-18 18-18h5" fill="none" stroke="url(#g2)" stroke-width="10" stroke-linecap="round" opacity=".9"/>
  <rect x="20" y="92" width="88" height="18" rx="9" fill="#e5e7eb"/>
  <rect x="28" y="99" width="72" height="8" rx="4" fill="#94a3b8"/>
  <path d="M36 66h56" stroke="#ffffff" stroke-width="5" stroke-linecap="round" opacity=".17"/>
</svg>
